<?xml version="1.0" encoding="UTF-8" standalone="no"?>
<svg
   xmlns:dc="http://purl.org/dc/elements/1.1/"
   xmlns:cc="http://creativecommons.org/ns#"
   xmlns:rdf="http://www.w3.org/1999/02/22-rdf-syntax-ns#"
   xmlns:svg="http://www.w3.org/2000/svg"
   xmlns="http://www.w3.org/2000/svg"
   xmlns:sodipodi="http://sodipodi.sourceforge.net/DTD/sodipodi-0.dtd"
   xmlns:inkscape="http://www.inkscape.org/namespaces/inkscape"
   id="svg5257"
   version="1.1"
   viewBox="0 0 38.014969 36.167751"
   height="36.167751mm"
   width="38.014969mm"
   sodipodi:docname="climate4R_logo.svg"
   inkscape:version="0.48.4 r9939">
  <sodipodi:namedview
     pagecolor="#ffffff"
     bordercolor="#666666"
     borderopacity="1"
     objecttolerance="10"
     gridtolerance="10"
     guidetolerance="10"
     inkscape:pageopacity="0"
     inkscape:pageshadow="2"
     inkscape:window-width="1855"
     inkscape:window-height="1056"
     id="namedview854"
     showgrid="false"
     fit-margin-top="0"
     fit-margin-left="0"
     fit-margin-right="0"
     fit-margin-bottom="0"
     inkscape:zoom="3.2605083"
     inkscape:cx="-16.482117"
     inkscape:cy="55.565793"
     inkscape:window-x="65"
     inkscape:window-y="24"
     inkscape:window-maximized="1"
     inkscape:current-layer="svg5257" />
  <defs
     id="defs5251">
    <linearGradient
       spreadMethod="pad"
       gradientUnits="userSpaceOnUse"
       y2="553.44208"
       y1="151.4006"
       x2="703.0675"
       x1="301.02603"
       id="gradientFill-2"
       gradientTransform="matrix(0.05233152,0,0,0.05339971,61.250293,59.285066)">
      <stop
         id="stop898"
         stop-opacity="1"
         stop-color="rgb(39,109,195)"
         offset="0" />
      <stop
         id="stop900"
         stop-opacity="1"
         stop-color="rgb(22,92,170)"
         offset="1" />
    </linearGradient>
    <linearGradient
       spreadMethod="pad"
       gradientUnits="userSpaceOnUse"
       y2="593.78699"
       y1="3.6658268"
       x2="590.86261"
       x1="0.7414425"
       id="gradientFill-1"
       gradientTransform="matrix(0.06459543,0,0,0.04326138,61.250293,59.285066)">
      <stop
         id="stop893"
         stop-opacity="1"
         stop-color="rgb(203,206,208)"
         offset="0" />
      <stop
         id="stop895"
         stop-opacity="1"
         stop-color="rgb(132,131,139)"
         offset="1" />
    </linearGradient>
    <linearGradient
       spreadMethod="pad"
       gradientUnits="userSpaceOnUse"
       y2="553.44208"
       y1="151.4006"
       x2="703.0675"
       x1="301.02603"
       id="gradientFill-2-6"
       gradientTransform="matrix(0.04229656,0,0,0.04327738,5.3566608,9.4836815)">
      <stop
         id="stop898-3"
         stop-opacity="1"
         stop-color="rgb(39,109,195)"
         offset="0" />
      <stop
         id="stop900-9"
         stop-opacity="1"
         stop-color="rgb(22,92,170)"
         offset="1" />
    </linearGradient>
    <linearGradient
       spreadMethod="pad"
       gradientUnits="userSpaceOnUse"
       y2="593.78699"
       y1="3.6658268"
       x2="590.86261"
       x1="0.7414425"
       id="gradientFill-1-9"
       gradientTransform="matrix(0.05220878,0,0,0.03506085,5.3566808,9.4836845)">
      <stop
         id="stop893-5"
         stop-opacity="1"
         stop-color="rgb(203,206,208)"
         offset="0" />
      <stop
         id="stop895-2"
         stop-opacity="1"
         stop-color="rgb(132,131,139)"
         offset="1" />
    </linearGradient>
  </defs>
  <metadata
     id="metadata5254">
    <rdf:RDF>
      <cc:Work
         rdf:about="">
        <dc:format>image/svg+xml</dc:format>
        <dc:type
           rdf:resource="http://purl.org/dc/dcmitype/StillImage" />
        <dc:title />
      </cc:Work>
    </rdf:RDF>
  </metadata>
  <path
     inkscape:connector-curvature="0"
     style="fill:url(#gradientFill-1-9);fill-rule:evenodd;stroke-width:0.04278415;overflow:visible"
     d="m 20.800145,30.302365 c -8.50779,0 -15.4047542,-4.631645 -15.4047542,-10.34506 0,-5.713452 6.8969642,-10.3450965 15.4047542,-10.3450965 8.50782,0 15.404747,4.6316445 15.404747,10.3450965 0,5.713415 -6.896927,10.34506 -15.404747,10.34506 z m 2.35796,-16.645581 c -6.46667,0 -11.70894,3.166391 -11.70894,7.072329 0,3.905935 5.24227,7.072324 11.70894,7.072324 6.46664,0 11.238918,-2.16478 11.238918,-7.072324 0,-4.906006 -4.772278,-7.072329 -11.238918,-7.072329 z"
     id="path905-1" />
  <path
     style="fill:url(#gradientFill-2-6);fill-opacity:1;fill-rule:evenodd;stroke-width:0.16170387;overflow:visible"
     d="m 18.090006,16.03571 0,10.972456 -2.474268,0 0,-10.950752 -5.7174812,0 -7.987633,10.358024 0,3.835941 8.8428782,0 0,3.162083 4.862236,0 0,-3.162083 2.474268,0 0,3.182236 5.254976,-0.0026 -0.0016,-6.810436 1.410766,0 c 0.288621,0 0.412967,0.08395 0.704867,0.320911 0.34993,0.284083 0.918807,1.264004 0.918807,1.264004 l 2.777091,5.229657 5.939171,-0.0026 -3.674708,-6.212023 c 0,0 -0.111802,-0.248274 -0.341582,-0.492995 -0.234569,-0.24985 -0.559808,-0.440007 -0.747758,-0.535367 -0.541208,-0.274597 -1.471671,-0.55658 -1.473295,-0.557072 0,0 4.592999,-0.341284 4.592999,-4.926831 0,-4.585539 -4.806423,-4.672583 -4.806423,-4.672583 l -10.553361,0 z m -7.336504,3.70675 0,7.265706 -5.6368697,0 5.6368697,-7.265706 z m 12.634888,0.06563 3.181718,0.0016 -5.16e-4,5.17e-4 c 0,0 1.474327,-0.07985 1.474327,1.450557 0,1.499938 -1.474327,1.504818 -1.474327,1.504818 l -3.182752,0.001 0.0015,-2.958476 z"
     id="path907-3"
     inkscape:connector-curvature="0" />
  <g
     aria-label="4"
     transform="scale(1.0719468,0.93288211)"
     style="font-style:italic;font-variant:normal;font-weight:normal;font-stretch:normal;font-size:19.14059258px;line-height:1.25;font-family:sans-serif;-inkscape-font-specification:'sans-serif Italic';letter-spacing:0px;word-spacing:0px;overflow:visible;fill:#2167ba;fill-opacity:1;stroke:none;stroke-width:0.47851482"
     id="text5229-9" />
  <rect
     style="fill:#2268bc;fill-opacity:0;stroke:#2268bc;stroke-width:0.44899791;stroke-linejoin:bevel;stroke-miterlimit:4;stroke-opacity:1;stroke-dasharray:none;stroke-dashoffset:0"
     id="rect5883"
     width="37.565971"
     height="35.718754"
     x="0.32129943"
     y="0.25808269" />
  <flowRoot
     xml:space="preserve"
     id="flowRoot3785"
     style="font-size:24px;font-style:normal;font-weight:bold;line-height:125%;letter-spacing:0px;word-spacing:0px;fill:#2268bc;fill-opacity:1;stroke:none;font-family:Sans;-inkscape-font-specification:Sans"
     transform="matrix(0.28222224,0,0,0.28222224,23.406278,8.1739243)"><flowRegion
       id="flowRegion3787"><rect
         id="rect3789"
         width="175.23105"
         height="32.530518"
         x="-73.085228"
         y="-27.993036"
         style="fill:#2268bc;fill-opacity:1" /></flowRegion><flowPara
       id="flowPara3791"
       style="font-style:normal;font-variant:normal;font-weight:bold;font-stretch:normal;font-family:Sans;-inkscape-font-specification:Sans">CLIMATE</flowPara></flowRoot>  <text
     xml:space="preserve"
     style="font-size:24px;font-style:normal;font-weight:bold;line-height:125%;letter-spacing:0px;word-spacing:0px;fill:#000000;fill-opacity:1;stroke:none;font-family:Sans;-inkscape-font-specification:Sans"
     x="-93.037277"
     y="-4.7879343"
     id="text3793"
     sodipodi:linespacing="125%"
     transform="matrix(0.28222224,0,0,0.28222224,-1.7647122e-6,0)"><tspan
       sodipodi:role="line"
       id="tspan3795"
       x="-93.037277"
       y="-4.7879343" /></text>
</svg>
