<?xml version="1.0" encoding="UTF-8" standalone="no"?>
<svg
   xmlns:dc="http://purl.org/dc/elements/1.1/"
   xmlns:cc="http://creativecommons.org/ns#"
   xmlns:rdf="http://www.w3.org/1999/02/22-rdf-syntax-ns#"
   xmlns:svg="http://www.w3.org/2000/svg"
   xmlns="http://www.w3.org/2000/svg"
   xmlns:sodipodi="http://sodipodi.sourceforge.net/DTD/sodipodi-0.dtd"
   xmlns:inkscape="http://www.inkscape.org/namespaces/inkscape"
   id="svg5257"
   version="1.1"
   viewBox="0 0 38.014969 36.167751"
   height="36.167751mm"
   width="38.014969mm"
   sodipodi:docname="climate4R_logo.svg"
   inkscape:version="0.48.4 r9939">
  <sodipodi:namedview
     pagecolor="#ffffff"
     bordercolor="#666666"
     borderopacity="1"
     objecttolerance="10"
     gridtolerance="10"
     guidetolerance="10"
     inkscape:pageopacity="0"
     inkscape:pageshadow="2"
     inkscape:window-width="1855"
     inkscape:window-height="1056"
     id="namedview854"
     showgrid="false"
     fit-margin-top="0"
     fit-margin-left="0"
     fit-margin-right="0"
     fit-margin-bottom="0"
     inkscape:zoom="3.2605083"
     inkscape:cx="80.776531"
     inkscape:cy="55.565793"
     inkscape:window-x="65"
     inkscape:window-y="24"
     inkscape:window-maximized="1"
     inkscape:current-layer="svg5257" />
  <defs
     id="defs5251">
    <linearGradient
       spreadMethod="pad"
       gradientUnits="userSpaceOnUse"
       y2="553.44208"
       y1="151.4006"
       x2="703.0675"
       x1="301.02603"
       id="gradientFill-2"
       gradientTransform="matrix(0.05233152,0,0,0.05339971,61.250293,59.285066)">
      <stop
         id="stop898"
         stop-opacity="1"
         stop-color="rgb(39,109,195)"
         offset="0" />
      <stop
         id="stop900"
         stop-opacity="1"
         stop-color="rgb(22,92,170)"
         offset="1" />
    </linearGradient>
    <linearGradient
       spreadMethod="pad"
       gradientUnits="userSpaceOnUse"
       y2="593.78699"
       y1="3.6658268"
       x2="590.86261"
       x1="0.7414425"
       id="gradientFill-1"
       gradientTransform="matrix(0.06459543,0,0,0.04326138,61.250293,59.285066)">
      <stop
         id="stop893"
         stop-opacity="1"
         stop-color="rgb(203,206,208)"
         offset="0" />
      <stop
         id="stop895"
         stop-opacity="1"
         stop-color="rgb(132,131,139)"
         offset="1" />
    </linearGradient>
    <linearGradient
       spreadMethod="pad"
       gradientUnits="userSpaceOnUse"
       y2="553.44208"
       y1="151.4006"
       x2="703.0675"
       x1="301.02603"
       id="gradientFill-2-6"
       gradientTransform="matrix(0.04229656,0,0,0.04327738,5.3566608,9.4836815)">
      <stop
         id="stop898-3"
         stop-opacity="1"
         stop-color="rgb(39,109,195)"
         offset="0" />
      <stop
         id="stop900-9"
         stop-opacity="1"
         stop-color="rgb(22,92,170)"
         offset="1" />
    </linearGradient>
    <linearGradient
       spreadMethod="pad"
       gradientUnits="userSpaceOnUse"
       y2="593.78699"
       y1="3.6658268"
       x2="590.86261"
       x1="0.7414425"
       id="gradientFill-1-9"
       gradientTransform="matrix(0.05220878,0,0,0.03506085,5.3566808,9.4836845)">
      <stop
         id="stop893-5"
         stop-opacity="1"
         stop-color="rgb(203,206,208)"
         offset="0" />
      <stop
         id="stop895-2"
         stop-opacity="1"
         stop-color="rgb(132,131,139)"
         offset="1" />
    </linearGradient>
  </defs>
  <metadata
     id="metadata5254">
    <rdf:RDF>
      <cc:Work
         rdf:about="">
        <dc:format>image/svg+xml</dc:format>
        <dc:type
           rdf:resource="http://purl.org/dc/dcmitype/StillImage" />
        <dc:title />
      </cc:Work>
    </rdf:RDF>
  </metadata>
  <path
     inkscape:connector-curvature="0"
     style="fill:url(#gradientFill-1-9);fill-rule:evenodd;stroke-width:0.04278415;overflow:visible"
     d="m 20.800145,30.302365 c -8.50779,0 -15.4047542,-4.631645 -15.4047542,-10.34506 0,-5.713452 6.8969642,-10.3450965 15.4047542,-10.3450965 8.50782,0 15.404747,4.6316445 15.404747,10.3450965 0,5.713415 -6.896927,10.34506 -15.404747,10.34506 z m 2.35796,-16.645581 c -6.46667,0 -11.70894,3.166391 -11.70894,7.072329 0,3.905935 5.24227,7.072324 11.70894,7.072324 6.46664,0 11.238918,-2.16478 11.238918,-7.072324 0,-4.906006 -4.772278,-7.072329 -11.238918,-7.072329 z"
     id="path905-1" />
  <path
     style="fill:url(#gradientFill-2-6);fill-opacity:1;fill-rule:evenodd;stroke-width:0.16170387;overflow:visible"
     d="m 18.090006,16.03571 0,10.972456 -2.474268,0 0,-10.950752 -5.7174812,0 -7.987633,10.358024 0,3.835941 8.8428782,0 0,3.162083 4.862236,0 0,-3.162083 2.474268,0 0,3.182236 5.254976,-0.0026 -0.0016,-6.810436 1.410766,0 c 0.288621,0 0.412967,0.08395 0.704867,0.320911 0.34993,0.284083 0.918807,1.264004 0.918807,1.264004 l 2.777091,5.229657 5.939171,-0.0026 -3.674708,-6.212023 c 0,0 -0.111802,-0.248274 -0.341582,-0.492995 -0.234569,-0.24985 -0.559808,-0.440007 -0.747758,-0.535367 -0.541208,-0.274597 -1.471671,-0.55658 -1.473295,-0.557072 0,0 4.592999,-0.341284 4.592999,-4.926831 0,-4.585539 -4.806423,-4.672583 -4.806423,-4.672583 l -10.553361,0 z m -7.336504,3.70675 0,7.265706 -5.6368697,0 5.6368697,-7.265706 z m 12.634888,0.06563 3.181718,0.0016 -5.16e-4,5.17e-4 c 0,0 1.474327,-0.07985 1.474327,1.450557 0,1.499938 -1.474327,1.504818 -1.474327,1.504818 l -3.182752,0.001 0.0015,-2.958476 z"
     id="path907-3"
     inkscape:connector-curvature="0" />
  <g
     aria-label="4"
     transform="scale(1.0719468,0.93288211)"
     style="font-style:italic;font-variant:normal;font-weight:normal;font-stretch:normal;font-size:19.14059258px;line-height:1.25;font-family:sans-serif;-inkscape-font-specification:'sans-serif Italic';letter-spacing:0px;word-spacing:0px;overflow:visible;fill:#2167ba;fill-opacity:1;stroke:none;stroke-width:0.47851482"
     id="text5229-9" />
  <rect
     style="fill:#2268bc;fill-opacity:0;stroke:#2268bc;stroke-width:0.50546002;stroke-linejoin:bevel;stroke-miterlimit:4;stroke-opacity:1;stroke-dasharray:none;stroke-dashoffset:0"
     id="rect5883"
     width="37.565971"
     height="35.718754"
     x="0.32129943"
     y="0.25808269" />
  <g
     transform="matrix(0.28222224,0,0,0.31560108,23.406278,8.9046045)"
     style="font-size:24px;font-style:normal;font-weight:bold;line-height:125%;letter-spacing:0px;word-spacing:0px;fill:#2268bc;fill-opacity:1;stroke:none;font-family:Sans;-inkscape-font-specification:Sans"
     id="flowRoot3785">
    <path
       d="m -57.015625,-5.0389576 c -0.82814,0.429688 -1.691421,0.7539064 -2.589844,0.9726562 -0.89845,0.2187498 -1.835949,0.3281247 -2.8125,0.328125 -2.91407,-3e-7 -5.222661,-0.8124995 -6.925781,-2.4375 -1.703127,-1.6328088 -2.554689,-3.8437436 -2.554687,-6.6328126 -2e-6,-2.796863 0.85156,-5.007799 2.554687,-6.632812 1.70312,-1.632796 4.011711,-2.449201 6.925781,-2.449219 0.976551,1.8e-5 1.91405,0.109393 2.8125,0.328125 0.898423,0.218767 1.761704,0.542986 2.589844,0.972656 l 0,3.621094 c -0.835953,-0.570299 -1.660171,-0.988268 -2.472656,-1.253906 -0.812513,-0.265611 -1.667981,-0.398423 -2.566406,-0.398438 -1.609385,1.5e-5 -2.875009,0.515639 -3.796875,1.546875 -0.921882,1.031262 -1.382819,2.453136 -1.382813,4.265625 -6e-6,1.804695 0.460931,3.2226619 1.382813,4.2539064 0.921866,1.0312534 2.18749,1.5468779 3.796875,1.546875 0.898425,2.9e-6 1.753893,-0.1328095 2.566406,-0.3984375 0.812485,-0.2656214 1.636703,-0.6835898 2.472656,-1.2539063 l 0,3.6210938"
       style="font-variant:normal;font-stretch:normal;font-family:Sans;-inkscape-font-specification:Sans"
       id="path3806"
       inkscape:connector-curvature="0" />
    <path
       d="m -53.265625,-21.574114 4.511719,0 0,14.0859376 7.921875,0 0,3.4101563 -12.433594,0 0,-17.4960939"
       style="font-variant:normal;font-stretch:normal;font-family:Sans;-inkscape-font-specification:Sans"
       id="path3808"
       inkscape:connector-curvature="0" />
    <path
       d="m -37.984375,-21.574114 4.511719,0 0,17.4960939 -4.511719,0 0,-17.4960939"
       style="font-variant:normal;font-stretch:normal;font-family:Sans;-inkscape-font-specification:Sans"
       id="path3810"
       inkscape:connector-curvature="0" />
    <path
       d="m -29.03125,-21.574114 5.742188,0 3.984375,9.363281 4.007812,-9.363281 5.7304687,0 0,17.4960939 -4.2656247,0 0,-12.7968749 -4.03125,9.4335936 -2.859375,0 -4.03125,-9.4335936 0,12.7968749 -4.277344,0 0,-17.4960939"
       style="font-variant:normal;font-stretch:normal;font-family:Sans;-inkscape-font-specification:Sans"
       id="path3812"
       inkscape:connector-curvature="0" />
    <path
       d="m 5.4921875,-7.2655201 -7.0546875,0 -1.1132813,3.1875 -4.5351562,0 6.48046875,-17.4960939 5.37890625,0 6.4804685,17.4960939 -4.535156,0 -1.1015625,-3.1875 M -0.4375,-10.511614 l 4.7929687,0 -2.390625,-6.960937 -2.4023437,6.960937"
       style="font-variant:normal;font-stretch:normal;font-family:Sans;-inkscape-font-specification:Sans"
       id="path3814"
       inkscape:connector-curvature="0" />
    <path
       d="m 9.4765625,-21.574114 16.1249995,0 0,3.410156 -5.800781,0 0,14.0859379 -4.511718,0 0,-14.0859379 -5.8125005,0 0,-3.410156"
       style="font-variant:normal;font-stretch:normal;font-family:Sans;-inkscape-font-specification:Sans"
       id="path3816"
       inkscape:connector-curvature="0" />
    <path
       d="m 27.921875,-21.574114 12.175781,0 0,3.410156 -7.664062,0 0,3.257813 7.207031,0 0,3.410156 -7.207031,0 0,4.0078126 7.921875,0 0,3.4101563 -12.433594,0 0,-17.4960939"
       style="font-variant:normal;font-stretch:normal;font-family:Sans;-inkscape-font-specification:Sans"
       id="path3818"
       inkscape:connector-curvature="0" />
  </g>
  <text
     xml:space="preserve"
     style="font-size:24px;font-style:normal;font-weight:bold;line-height:125%;letter-spacing:0px;word-spacing:0px;fill:#000000;fill-opacity:1;stroke:none;font-family:Sans;-inkscape-font-specification:Sans"
     x="-93.037277"
     y="-4.7879343"
     id="text3793"
     sodipodi:linespacing="125%"
     transform="matrix(0.28222224,0,0,0.28222224,-1.7647122e-6,0)"><tspan
       sodipodi:role="line"
       id="tspan3795"
       x="-93.037277"
       y="-4.7879343" /></text>
</svg>
