<?xml version="1.0" encoding="UTF-8" standalone="no"?>
<svg
   xmlns:dc="http://purl.org/dc/elements/1.1/"
   xmlns:cc="http://creativecommons.org/ns#"
   xmlns:rdf="http://www.w3.org/1999/02/22-rdf-syntax-ns#"
   xmlns:svg="http://www.w3.org/2000/svg"
   xmlns="http://www.w3.org/2000/svg"
   xmlns:sodipodi="http://sodipodi.sourceforge.net/DTD/sodipodi-0.dtd"
   xmlns:inkscape="http://www.inkscape.org/namespaces/inkscape"
   id="svg5257"
   version="1.1"
   viewBox="0 0 38.014969 36.167751"
   height="36.167751mm"
   width="38.014969mm"
   sodipodi:docname="climate4R_logo.svg"
   inkscape:version="0.92.4 (unknown)">
  <sodipodi:namedview
     pagecolor="#ffffff"
     bordercolor="#666666"
     borderopacity="1"
     objecttolerance="10"
     gridtolerance="10"
     guidetolerance="10"
     inkscape:pageopacity="0"
     inkscape:pageshadow="2"
     inkscape:window-width="1920"
     inkscape:window-height="1056"
     id="namedview854"
     showgrid="false"
     fit-margin-top="0"
     fit-margin-left="0"
     fit-margin-right="0"
     fit-margin-bottom="0"
     inkscape:zoom="2.3055275"
     inkscape:cx="-25.209195"
     inkscape:cy="-22.507446"
     inkscape:window-x="1366"
     inkscape:window-y="24"
     inkscape:window-maximized="1"
     inkscape:current-layer="svg5257" />
  <defs
     id="defs5251">
    <linearGradient
       spreadMethod="pad"
       gradientUnits="userSpaceOnUse"
       y2="553.44208"
       y1="151.4006"
       x2="703.0675"
       x1="301.02603"
       id="gradientFill-2"
       gradientTransform="matrix(0.05233152,0,0,0.05339971,61.250293,59.285066)">
      <stop
         id="stop898"
         stop-opacity="1"
         stop-color="rgb(39,109,195)"
         offset="0" />
      <stop
         id="stop900"
         stop-opacity="1"
         stop-color="rgb(22,92,170)"
         offset="1" />
    </linearGradient>
    <linearGradient
       spreadMethod="pad"
       gradientUnits="userSpaceOnUse"
       y2="593.78699"
       y1="3.6658268"
       x2="590.86261"
       x1="0.7414425"
       id="gradientFill-1"
       gradientTransform="matrix(0.06459543,0,0,0.04326138,61.250293,59.285066)">
      <stop
         id="stop893"
         stop-opacity="1"
         stop-color="rgb(203,206,208)"
         offset="0" />
      <stop
         id="stop895"
         stop-opacity="1"
         stop-color="rgb(132,131,139)"
         offset="1" />
    </linearGradient>
    <linearGradient
       spreadMethod="pad"
       gradientUnits="userSpaceOnUse"
       y2="553.44208"
       y1="151.4006"
       x2="703.0675"
       x1="301.02603"
       id="gradientFill-2-6"
       gradientTransform="matrix(0.15986101,0,0,0.16356805,19.879849,35.716904)">
      <stop
         id="stop898-3"
         stop-opacity="1"
         stop-color="rgb(39,109,195)"
         offset="0" />
      <stop
         id="stop900-9"
         stop-opacity="1"
         stop-color="rgb(22,92,170)"
         offset="1" />
    </linearGradient>
    <linearGradient
       spreadMethod="pad"
       gradientUnits="userSpaceOnUse"
       y2="593.78699"
       y1="3.6658268"
       x2="590.86261"
       x1="0.7414425"
       id="gradientFill-1-9"
       gradientTransform="matrix(0.05220878,0,0,0.03506085,5.2598969,9.4501007)">
      <stop
         id="stop893-5"
         stop-opacity="1"
         stop-color="rgb(203,206,208)"
         offset="0" />
      <stop
         id="stop895-2"
         stop-opacity="1"
         stop-color="rgb(132,131,139)"
         offset="1" />
    </linearGradient>
  </defs>
  <metadata
     id="metadata5254">
    <rdf:RDF>
      <cc:Work
         rdf:about="">
        <dc:format>image/svg+xml</dc:format>
        <dc:type
           rdf:resource="http://purl.org/dc/dcmitype/StillImage" />
        <dc:title />
      </cc:Work>
    </rdf:RDF>
  </metadata>
  <path
     inkscape:connector-curvature="0"
     style="overflow:visible;fill:url(#gradientFill-1-9);fill-rule:evenodd;stroke-width:0.04278415"
     d="m 20.703357,30.26878 c -8.50779,0 -15.4047501,-4.631645 -15.4047501,-10.34506 0,-5.713452 6.8969601,-10.3450953 15.4047501,-10.3450953 8.50782,0 15.40475,4.6316433 15.40475,10.3450953 0,5.713415 -6.89693,10.34506 -15.40475,10.34506 z m 2.35796,-16.645581 c -6.46667,0 -11.70894,3.166391 -11.70894,7.072329 0,3.905935 5.24227,7.072324 11.70894,7.072324 6.46664,0 11.23892,-2.16478 11.23892,-7.072324 0,-4.906006 -4.77228,-7.072329 -11.23892,-7.072329 z"
     id="path905-1" />
  <g
     aria-label="CLIMATE"
     transform="matrix(1.160753,0,0,1.1639122,-2.385727,-1.5918916)"
     style="font-style:italic;font-variant:normal;font-weight:normal;font-stretch:normal;font-size:8.56553173px;line-height:1.25;font-family:sans-serif;-inkscape-font-specification:'sans-serif Italic';letter-spacing:0px;word-spacing:0px;overflow:visible;fill:#2268bc;fill-opacity:1;stroke:none;stroke-width:0.2141383"
     id="text5225-0">
    <path
       d="m 7.1435863,7.7296533 q -0.4232578,0.1502872 -0.8127776,0.2269643 -0.3895199,0.076677 -0.7391676,0.076677 -0.9231926,0 -1.475268,-0.5060691 -0.5520753,-0.5060691 -0.5520753,-1.3403163 0,-0.5490082 0.1748238,-1.0336077 0.1748239,-0.4876666 0.5152703,-0.8894548 0.4017882,-0.4723311 0.9661319,-0.7268992 0.5674108,-0.254568 1.2207,-0.254568 0.3557818,0 0.7146308,0.085878 0.358849,0.082811 0.7299663,0.2545681 L 7.6956616,4.5705555 Q 7.4012214,4.3466582 7.1037142,4.2423773 6.8062069,4.1380964 6.4657604,4.1380964 q -0.7084967,0 -1.186962,0.5459412 -0.4784653,0.5459412 -0.4784653,1.364853 0,0.5275387 0.2944402,0.828113 0.2944402,0.3005744 0.8127776,0.3005744 0.3097756,0 0.6563563,-0.1104151 0.3496477,-0.1134822 0.7821067,-0.3527148 z"
       style="font-weight:bold;font-size:6.28139067px;fill:#2268bc;fill-opacity:1;stroke-width:0.2141383"
       id="path843"
       inkscape:connector-curvature="0" />
    <path
       d="M 8.9746364,3.365191 H 10.155464 L 9.4377662,7.0518275 h 2.0672158 l -0.16869,0.8925218 H 8.0821146 Z"
       style="font-weight:bold;font-size:6.28139067px;fill:#2268bc;fill-opacity:1;stroke-width:0.2141383"
       id="path845"
       inkscape:connector-curvature="0" />
    <path
       d="m 12.974115,3.365191 h 1.180828 l -0.892522,4.5791583 h -1.180828 z"
       style="font-weight:bold;font-size:6.28139067px;fill:#2268bc;fill-opacity:1;stroke-width:0.2141383"
       id="path847"
       inkscape:connector-curvature="0" />
    <path
       d="m 15.317369,3.365191 h 1.450732 l 0.58888,2.4321986 1.545811,-2.4321986 h 1.509006 L 19.519276,7.9443493 H 18.39979 l 0.653289,-3.379928 -1.58875,2.4996745 h -0.634887 l -0.631819,-2.4996745 -0.653289,3.379928 h -1.119487 z"
       style="font-weight:bold;font-size:6.28139067px;fill:#2268bc;fill-opacity:1;stroke-width:0.2141383"
       id="path849"
       inkscape:connector-curvature="0" />
    <path
       d="m 23.635304,7.1101021 h -1.827983 l -0.453929,0.8342472 h -1.211498 l 2.58862,-4.5791583 h 1.349517 l 0.809711,4.5791583 H 23.767188 Z M 22.252048,6.278922 h 1.229901 L 23.205912,4.5153479 Z"
       style="font-weight:bold;font-size:6.28139067px;fill:#2268bc;fill-opacity:1;stroke-width:0.2141383"
       id="path851"
       inkscape:connector-curvature="0" />
    <path
       d="m 25.285396,3.365191 h 4.220309 l -0.174824,0.8925218 h -1.521274 l -0.717698,3.6866365 h -1.180828 l 0.717698,-3.6866365 h -1.521274 z"
       style="font-weight:bold;font-size:6.28139067px;fill:#2268bc;fill-opacity:1;stroke-width:0.2141383"
       id="path853"
       inkscape:connector-curvature="0" />
    <path
       d="m 30.112987,3.365191 h 3.183635 l -0.174824,0.8925218 h -2.002807 l -0.165622,0.8526497 h 1.886257 l -0.177891,0.8925218 h -1.88319 l -0.202428,1.0489432 h 2.067216 l -0.16869,0.8925218 h -3.254177 z"
       style="font-weight:bold;font-size:6.28139067px;fill:#2268bc;fill-opacity:1;stroke-width:0.2141383"
       id="path855"
       inkscape:connector-curvature="0" />
  </g>
  <path
     style="overflow:visible;fill:url(#gradientFill-2-6);fill-rule:evenodd;stroke-width:0.16170387"
     d="M 68.005859 60.480469 L 68.005859 101.95117 L 58.654297 101.95117 L 58.654297 60.5625 L 37.044922 60.5625 L 6.8554688 99.710938 L 6.8554688 114.20898 L 40.277344 114.20898 L 40.277344 126.16016 L 58.654297 126.16016 L 58.654297 114.20898 L 68.005859 114.20898 L 68.005859 126.23633 L 87.867188 126.22656 L 87.861328 100.48633 L 93.193359 100.48633 C 94.284207 100.48633 94.754178 100.80363 95.857422 101.69922 C 97.179992 102.77292 99.330078 106.47656 99.330078 106.47656 L 109.82617 126.24219 L 132.27344 126.23242 L 118.38477 102.75391 C 118.38477 102.75391 117.96221 101.81555 117.09375 100.89062 C 116.20719 99.946306 114.97794 99.227603 114.26758 98.867188 C 112.22207 97.82934 108.70536 96.763577 108.69922 96.761719 C 108.69922 96.761719 126.05859 95.471826 126.05859 78.140625 C 126.05859 60.809455 107.89258 60.480469 107.89258 60.480469 L 68.005859 60.480469 z M 40.277344 74.490234 L 40.277344 101.95117 L 18.972656 101.95117 L 40.277344 74.490234 z M 88.03125 74.738281 L 100.05664 74.744141 L 100.05469 74.746094 C 100.05469 74.746094 105.62695 74.444304 105.62695 80.228516 C 105.62695 85.897572 100.05469 85.916016 100.05469 85.916016 L 88.025391 85.919922 L 88.03125 74.738281 z "
     transform="scale(0.26458334)"
     id="path907-3" />
  <g
     aria-label="4"
     transform="scale(1.0719468,0.93288211)"
     style="font-style:italic;font-variant:normal;font-weight:normal;font-stretch:normal;font-size:19.14059258px;line-height:1.25;font-family:sans-serif;-inkscape-font-specification:'sans-serif Italic';letter-spacing:0px;word-spacing:0px;overflow:visible;fill:#2167ba;fill-opacity:1;stroke:none;stroke-width:0.47851482"
     id="text5229-9" />
  <rect
     style="fill:#000000;fill-opacity:0;stroke:#000000;stroke-width:0.44899791;stroke-linejoin:bevel;stroke-miterlimit:4;stroke-dasharray:none;stroke-dashoffset:0;stroke-opacity:1"
     id="rect5883"
     width="37.565971"
     height="35.718754"
     x="0.22449896"
     y="0.22449896" />
</svg>
